<?xml version="1.0" encoding="utf-8"?>
<!-- Generator: Adobe Illustrator 24.1.2, SVG Export Plug-In . SVG Version: 6.00 Build 0)  -->
<svg version="1.1" id="Layer_1" xmlns="http://www.w3.org/2000/svg" xmlns:xlink="http://www.w3.org/1999/xlink" x="0px" y="0px"
	 viewBox="0 0 336.7 59.1" style="enable-background:new 0 0 336.7 59.1;" xml:space="preserve">
<style type="text/css">
	.st0{fill:#FF9F1C;}
	.st1{fill:#FFBF69;}
</style>
<g>
	<g>
		<g>
			<g>
				<rect x="3.7" y="19.8" class="st0" width="9.3" height="31.9"/>
			</g>
			<g>
				<path class="st0" d="M32,31.4c-4.7-0.3-4.7-1.8-4.7-2.3c0-1.8,3.1-2,4.5-2c2.9,0,5,0.7,6.7,2.4l0.7,0.7l5.4-6.3l-0.7-0.6
					c-3.4-3-6.9-4.2-12.3-4.2c-6.7,0-13.5,3.2-13.5,10.3c0,5.9,4.7,9.6,13.3,10.2c5,0.3,5,1.4,5,2.2c0,1.4-1.9,2.6-4.2,2.6l-0.1,0
					c-2.9-0.1-7.6-1.6-9.6-3.8l-0.8-0.9l-4.8,6.9l0.5,0.6c4.8,5,10,5.6,14.5,5.6c9.5,0,13.8-5.4,13.8-10.8
					C45.6,32.3,35.7,31.7,32,31.4z"/>
			</g>
			<g>
				<g>
					<path class="st0" d="M64.5,19.3c-9.5,0-16.4,6.9-16.4,16.5c0,9.7,6.8,16.5,16.5,16.5c9.7,0,16.5-6.8,16.5-16.5
						C81,26.3,74.1,19.3,64.5,19.3z M71.6,35.8c0,3.9-2.2,7.8-7.1,7.8c-4.9,0-7.1-3.9-7.1-7.8c0-3.8,2.2-7.9,7.1-7.9
						C69,28,71.6,32,71.6,35.8z"/>
				</g>
			</g>
		</g>
	</g>
	<g>
		<g>
			<g>
				<g>
					<path class="st1" d="M113.5,19.9h7.5v31.7h-7.4l-0.4-4.6c-1.8,3.7-6.8,5.5-10.3,5.6c-9.4,0.1-16.3-5.7-16.3-16.8
						c0-10.9,7.3-16.7,16.5-16.6c4.2,0,8.3,2,10.1,5.1L113.5,19.9z M94.5,35.8c0,6,4.2,9.6,9.4,9.6c12.3,0,12.3-19.2,0-19.2
						C98.7,26.2,94.5,29.7,94.5,35.8z"/>
					<path class="st1" d="M155.6,47.6c-3.7,3.6-7.5,5-12.2,5c-9.2,0-16.8-5.5-16.8-16.8S134.2,19,143.4,19c4.5,0,8,1.3,11.4,4.7
						l-4.9,5.2c-1.9-1.7-4.2-2.5-6.4-2.5c-5.3,0-9.1,3.9-9.1,9.4c0,6,4.1,9.3,9,9.3c2.5,0,5-0.7,6.9-2.6L155.6,47.6z"/>
					<path class="st1" d="M167.1,19.9v16.6c0,4.8,2.6,8.5,7.7,8.5c4.8,0,8.1-4.1,8.1-8.9V19.9h7.8v31.8h-7l-0.5-4.3
						c-3.3,3.2-6.3,4.8-10.7,4.8c-7.6,0-13.1-5.7-13.1-15.6V19.9H167.1z"/>
					<path class="st1" d="M218.3,28.4c-2.2-2.1-4.8-2.8-7.8-2.8c-3.7,0-5.8,1.2-5.8,3.1c0,2.1,1.9,3.2,5.9,3.5
						c6,0.4,13.6,1.7,13.6,10.2c0,5.6-4.6,10.4-13.6,10.4c-5,0-10-0.8-14.7-5.7l3.9-5.6c2.2,2.5,7.4,4.4,10.9,4.4
						c3,0.1,5.7-1.5,5.7-3.8c0-2.2-1.8-3.1-6.3-3.3c-6-0.4-13.1-2.6-13.1-9.8c0-7.3,7.6-9.9,13.4-9.9c5,0,8.7,1,12.3,4.2L218.3,28.4
						z"/>
					<path class="st1" d="M240.2,11v9h8.7v6.7h-8.8v13.7c0,3,1.7,4.5,4.1,4.5c1.2,0,2.6-0.4,3.8-1l2.2,6.7c-2.3,0.9-4.1,1.3-6.5,1.4
						c-6.9,0.3-11.4-3.7-11.4-11.6V26.8h-5.9V20h5.9v-8.2L240.2,11z"/>
					<path class="st1" d="M254.8,19.8v31.8h7.8V19.8H254.8z"/>
					<path class="st1" d="M296.9,47.6c-3.7,3.6-7.5,5-12.2,5c-9.2,0-16.8-5.5-16.8-16.8S275.5,19,284.7,19c4.5,0,8,1.3,11.4,4.7
						l-4.9,5.2c-1.9-1.7-4.2-2.5-6.4-2.5c-5.3,0-9.1,3.9-9.1,9.4c0,6,4.1,9.3,9,9.3c2.5,0,5-0.7,6.9-2.6L296.9,47.6z"/>
					<path class="st1" d="M325.5,19.9h7.5v31.7h-7.4l-0.4-4.6c-1.8,3.7-6.8,5.5-10.3,5.6c-9.4,0.1-16.3-5.7-16.3-16.8
						c0-10.9,7.3-16.7,16.5-16.6c4.2,0,8.3,2,10.1,5.1L325.5,19.9z M306.5,35.8c0,6,4.2,9.6,9.4,9.6c12.3,0,12.3-19.2,0-19.2
						C310.6,26.2,306.5,29.7,306.5,35.8z"/>
				</g>
			</g>
			<g>
				<path class="st1" d="M183.6,6.4H183c-1.6,1.5-3.9,2.2-6.4,2.3v6.9c0.1,0,0.1,0,0.2,0c4.9,0,8.9-1.6,11.8-4.3L183.6,6.4z"/>
			</g>
		</g>
	</g>
</g>
</svg>
