<svg width="60" height="69" viewBox="0 0 60 69" fill="none" xmlns="http://www.w3.org/2000/svg">
<path d="M4.47743 48.293L4.28897 49.8007C4.19474 50.5546 4.76012 51.1671 5.51397 51.1671H54.0427C54.7965 51.1671 55.3619 50.5075 55.2677 49.8007L55.0792 48.293C54.9379 47.1152 55.786 46.0786 56.9638 45.9373C58.1417 45.7959 59.1783 46.644 59.2725 47.8219L59.461 49.2825C59.8379 52.5334 58.0004 55.3603 54.7023 55.3603H4.80724C1.50917 55.3603 -0.328329 52.5334 0.0485928 49.2825L0.237055 47.8219C0.3784 46.644 1.36782 45.7959 2.5457 45.9373C3.72358 46.0786 4.57166 47.1623 4.47743 48.293Z" fill="#D50C1C"/>
<path d="M49.3311 37.0797C51.6869 37.0797 53.5715 35.3835 53.5244 33.122C53.4773 30.8133 51.3571 29.3056 49.0013 29.3056H44.2427C43.2062 29.3056 42.311 28.4105 42.311 27.3268C42.311 26.2432 43.159 25.348 44.2427 25.348H47.3994C49.5196 25.2537 51.1686 23.9816 51.31 21.9557C51.4042 19.7884 49.5667 18.1864 47.2581 18.1864H39.5783L39.5312 37.1268L49.3311 37.0797ZM55.1263 21.9085C55.1263 23.8874 54.4196 25.0182 53.2888 26.3845L53.1946 26.5258L53.3359 26.6201C55.6446 28.0335 57.2465 30.1537 57.3407 33.0749C57.5292 37.5037 53.76 41.1316 49.3311 41.1316H37.5994C36.4687 41.1316 35.5264 40.1893 35.5264 39.0114V16.3018C35.5264 15.1239 36.4687 14.1816 37.5994 14.1816L47.2581 14.2288C51.4984 14.2288 55.1263 17.3384 55.1263 21.9085Z" fill="#373536"/>
<path d="M17.3399 33.3578L17.387 33.4992L17.4341 33.3578C17.9995 31.8501 18.612 30.2011 19.3187 28.4107C20.0255 26.5261 20.7322 24.6886 21.4389 22.9453C22.1456 21.2021 22.8524 19.6001 23.512 18.2338C24.1716 16.8203 24.6899 15.878 25.1139 15.3598C25.7735 14.6059 26.6216 14.229 27.6581 14.229H28.1293C28.7889 14.229 29.2601 14.4175 29.637 14.7002C29.9668 14.9828 30.2024 15.3598 30.2495 15.7367L33.2649 39.2472C33.2649 39.8597 33.0764 40.3309 32.7466 40.6607C32.4168 40.9905 31.8985 41.1318 31.286 41.1318C30.6735 41.1318 30.1552 40.9905 29.7783 40.6607C29.3543 40.378 29.1187 39.9539 29.0716 39.4828C28.9774 38.6818 28.8831 37.8338 28.7889 36.8915C28.6476 35.9491 28.1764 31.8501 28.0351 30.8136C27.8937 29.7299 27.0456 23.1338 26.7629 20.6838L26.8101 20.5425L25.8206 22.5684C25.4908 23.2751 25.1139 24.1232 24.737 25.1126C24.3601 26.1021 23.936 27.1386 23.5591 28.2222C23.1351 29.2588 21.2505 34.6299 21.2505 34.6299C21.062 35.1011 20.7322 36.0905 20.4495 36.9857C20.1668 37.8809 19.8841 38.6818 19.7899 38.8703C19.3658 39.7655 18.4707 40.3309 17.387 40.3309C16.2562 40.3309 15.4082 39.7184 14.937 38.8703C14.8428 38.7289 14.5601 37.8809 14.2774 36.9857C13.9947 36.0905 13.6649 35.1011 13.4764 34.6299C13.4764 34.6299 11.5918 29.2588 11.1678 28.2222C10.7909 27.1386 10.3668 26.1021 9.9899 25.1126C9.61298 24.1232 9.23606 23.2751 8.90625 22.5684L8.01106 20.5425V20.7309C7.72837 23.1338 6.8803 29.777 6.73895 30.8607C6.5976 31.8972 6.12645 35.9963 5.98511 36.9386C5.89088 37.8809 5.79664 38.7761 5.70241 39.5299C5.6553 40.0011 5.41972 40.4251 4.99568 40.7078C4.61876 40.9905 4.10049 41.1789 3.488 41.1789C2.82838 41.1789 2.35723 41.0376 2.02742 40.7078C1.69762 40.378 1.50916 39.9068 1.50916 39.2943L4.52453 15.7838C4.57165 15.4069 4.80722 15.03 5.13703 14.7473C5.51395 14.4175 6.03222 14.2761 6.64472 14.2761H7.11587C8.15241 14.2761 9.00048 14.653 9.6601 15.4069C10.0841 15.9252 10.6024 16.8675 11.262 18.2809C11.9216 19.6473 12.5812 21.2021 13.3351 22.9924C14.0418 24.7357 14.7485 26.5261 15.5024 28.4578C16.162 30.2011 16.8216 31.8501 17.3399 33.3578Z" fill="#373536"/>
<path d="M11.4034 0H48.2475C51.734 0 53.4302 2.59134 53.8542 6.03076L53.9956 7.11441C54.1369 8.29229 53.2417 9.32882 52.111 9.47017C50.9331 9.61152 49.8965 8.76344 49.8023 7.53845L49.661 6.50191C49.5196 5.18268 48.9542 4.19326 47.635 4.19326H12.063C10.7437 4.19326 10.1784 5.18268 10.037 6.50191L9.89567 7.53845C9.75432 8.71633 8.71778 9.5644 7.58702 9.47017C6.40913 9.32882 5.56106 8.29229 5.70241 7.11441L5.84375 6.03076C6.22067 2.59134 7.96394 0 11.4034 0Z" fill="#D50C1C"/>
<path d="M17.6697 61.6741C17.9053 61.6741 18.0938 61.7683 18.2822 61.9096C18.4707 62.051 18.5649 62.2395 18.612 62.475L19.4601 67.5635C19.5072 67.7048 19.5072 67.8933 19.5072 68.0346C19.5072 68.2231 19.4601 68.3644 19.3188 68.4587C19.1774 68.6 19.0361 68.6471 18.8947 68.6471C18.7063 68.6471 18.5649 68.6 18.4236 68.5058C18.2822 68.4116 18.2351 68.2702 18.188 68.1289L17.4813 63.8885H17.4341L15.8322 67.375C15.6438 67.7048 15.4082 67.8933 15.1255 67.8933C14.8428 67.8933 14.6072 67.7048 14.4188 67.375L12.8168 63.8885H12.7697L12.063 68.1289C12.0159 68.2702 11.9688 68.4116 11.8274 68.5058C11.6861 68.6 11.5447 68.6471 11.3563 68.6471C11.1678 68.6471 11.0265 68.6 10.9322 68.4587C10.7909 68.3173 10.7438 68.176 10.7438 68.0346L10.7909 67.5635L11.639 62.475C11.6861 62.2395 11.7803 62.051 11.9688 61.9096C12.1572 61.7683 12.3457 61.6741 12.5813 61.6741C12.7697 61.6741 12.9582 61.7212 13.0995 61.8625C13.2409 62.0039 13.3822 62.0981 13.4293 62.2395L15.0784 65.9616H15.1255L16.7745 62.2395C16.8216 62.0981 16.963 61.9568 17.1043 61.8625C17.2928 61.7212 17.4813 61.6741 17.6697 61.6741Z" fill="#373536"/>
<path d="M21.2034 61.8623H23.6063C24.313 61.8623 24.8784 62.0508 25.3024 62.3806C25.7264 62.7104 25.9149 63.1344 25.9149 63.6056C25.9149 63.8411 25.8678 64.0296 25.8207 64.171C25.7736 64.3123 25.6793 64.5008 25.5851 64.595C25.4909 64.6892 25.3966 64.7835 25.3024 64.8306C25.2082 64.8777 25.1139 64.9248 25.0668 64.9719L24.9726 65.019V65.0661C25.0197 65.0661 25.0668 65.0661 25.1139 65.1133C25.1611 65.1133 25.3024 65.1604 25.4437 65.2546C25.5851 65.3488 25.7264 65.4431 25.8678 65.5373C26.0091 65.6315 26.1034 65.82 26.1976 66.0085C26.2918 66.244 26.3389 66.4796 26.3389 66.7152C26.3389 67.2334 26.1034 67.6575 25.6322 68.0815C25.1611 68.4584 24.5957 68.6469 23.8418 68.6469H21.2034C21.0149 68.6469 20.8265 68.5998 20.7322 68.4584C20.5909 68.3171 20.5438 68.1758 20.5438 67.9873V62.569C20.5438 62.3806 20.5909 62.2392 20.7322 62.0979C20.8736 61.9094 21.0149 61.8623 21.2034 61.8623ZM21.9101 63.0873V64.5008H23.6534C23.9361 64.5008 24.1716 64.4536 24.3601 64.3123C24.5486 64.171 24.5957 64.0296 24.5957 63.794C24.5957 63.6056 24.5014 63.4171 24.3601 63.3229C24.2188 63.2287 23.9832 63.1344 23.6534 63.1344H21.9101V63.0873ZM21.9101 65.6315V67.3277H23.8889C24.2188 67.3277 24.5014 67.2334 24.6899 67.0921C24.8784 66.9508 24.9726 66.7623 24.9726 66.4796C24.9726 66.1969 24.8784 66.0084 24.6899 65.8671C24.5014 65.7258 24.2659 65.6315 23.8889 65.6315H21.9101Z" fill="#373536"/>
<path d="M35.9033 61.8152C36.0918 61.8152 36.2802 61.8623 36.3745 62.0036C36.5158 62.145 36.5629 62.2863 36.5629 62.4748C36.5629 62.5219 36.5629 62.6161 36.5158 62.6633C36.5158 62.7575 36.4687 62.8046 36.4687 62.8517L36.4216 62.9459L34.9139 67.8931C34.7254 68.4584 34.3956 68.7411 33.8302 68.7411C33.5475 68.7411 33.312 68.6469 33.1235 68.5056C32.935 68.3642 32.8408 68.1286 32.7466 67.8931L31.5687 63.8411H31.5216L30.3908 67.8931C30.3437 68.1286 30.2024 68.3642 30.0139 68.5056C29.8254 68.6469 29.5899 68.7411 29.3072 68.7411C28.7889 68.7411 28.412 68.4584 28.2706 67.8931L26.9043 62.9459C26.8101 62.7575 26.8101 62.6161 26.8101 62.4748C26.8101 62.2863 26.8572 62.145 26.9985 62.0036C27.1399 61.8623 27.2812 61.8152 27.4697 61.8152C27.611 61.8152 27.7524 61.8623 27.8937 61.9565C28.0351 62.0508 28.0822 62.1921 28.1293 62.3334L29.4956 66.9507H29.5427L30.7206 62.6161C30.862 62.0508 31.1918 61.8152 31.6629 61.8152C32.1341 61.8152 32.4639 62.0979 32.6052 62.6161L33.7831 66.9507H33.8302L35.1966 62.3334C35.2437 62.1921 35.3379 62.0508 35.4322 61.9565C35.6206 61.8623 35.762 61.8152 35.9033 61.8152Z" fill="#373536"/>
<path d="M39.3899 61.8623C39.5783 61.7209 39.7668 61.6738 40.0023 61.6738C40.2379 61.6738 40.4735 61.7681 40.6148 61.9094C40.7562 62.0508 40.8975 62.2392 40.9918 62.4748L43.1591 67.6103C43.2062 67.7517 43.2533 67.893 43.2533 68.0344C43.2533 68.2229 43.2062 68.3642 43.0648 68.5055C42.9235 68.6469 42.7822 68.694 42.5937 68.694C42.2639 68.694 42.0283 68.5055 41.887 68.1286L41.4629 66.9979H38.4475L38.0235 68.1286C37.8822 68.5055 37.6466 68.694 37.3168 68.694C37.1283 68.694 36.987 68.6469 36.8456 68.5055C36.7043 68.3642 36.6572 68.2229 36.6572 68.0344C36.6572 67.9873 36.6572 67.893 36.7043 67.8459C36.7043 67.7517 36.7514 67.7046 36.7514 67.6575V67.6103L38.9658 62.4277C39.06 62.145 39.2014 62.0036 39.3899 61.8623ZM40.0023 63.2286L39.0129 65.6786H41.0389L40.0495 63.2286H40.0023Z" fill="#373536"/>
<path d="M48.4359 61.8152C48.6244 61.8152 48.8129 61.8623 48.9071 62.0036C49.0484 62.145 49.0956 62.2863 49.0956 62.4748C49.0956 62.569 49.0956 62.6633 49.0484 62.7575C49.0013 62.8517 48.9542 62.8988 48.9542 62.9459L48.9071 62.9931L46.6927 66.0556V67.9402C46.6927 68.1286 46.6456 68.3171 46.5042 68.4113C46.3629 68.5527 46.2215 68.5998 46.0331 68.5998C45.7975 68.5998 45.6561 68.5527 45.5148 68.4113C45.3735 68.27 45.3263 68.1286 45.3263 67.9402V66.0556L43.1119 62.9931C42.9706 62.8517 42.8763 62.6633 42.8763 62.4748C42.8763 62.2863 42.9235 62.0979 43.0648 62.0036C43.2062 61.8623 43.3475 61.8152 43.536 61.8152C43.6302 61.8152 43.7244 61.8623 43.8186 61.9094C43.9129 61.9565 44.0071 62.0036 44.0071 62.0979L44.0542 62.1921L45.8917 64.7363H45.9388L47.7763 62.1921C48.0119 61.9094 48.2004 61.8152 48.4359 61.8152Z" fill="#373536"/>
</svg>
