<svg width="59" height="69" viewBox="0 0 59 69" fill="none" xmlns="http://www.w3.org/2000/svg">
<path fill-rule="evenodd" clip-rule="evenodd" d="M11.9253 0H46.7435H48.581C51.1724 0 53.2454 2.21442 53.2454 4.9471V7.30287C53.2454 10.6481 48.7224 10.6481 48.7224 7.30287V6.03076C48.7224 5.2298 48.0627 4.52307 47.2147 4.52307H10.5119C9.71091 4.52307 9.00418 5.18268 9.00418 6.03076V7.30287C9.00418 10.6481 4.66958 10.6009 4.66958 7.3971V4.9471C4.66958 2.21442 6.78976 0 9.33399 0H11.9253ZM28.6984 55.2662H52.4445C57.8627 55.2662 57.9098 49.5182 57.3916 46.6441C57.1089 44.7124 53.8579 44.7595 53.481 46.6441V48.8585C53.481 49.8951 52.6329 50.696 51.6435 50.696H28.6984H26.8609H6.08304C5.0465 50.696 4.24554 49.848 4.24554 48.8585V46.6441C3.86862 44.7595 0.617664 44.7124 0.334973 46.6441C-0.230411 49.471 -0.183296 55.2662 5.28208 55.2662H26.908H28.6984Z" fill="#1866AC"/>
<path fill-rule="evenodd" clip-rule="evenodd" d="M43.3983 25.3951H47.1675V25.348C48.9108 25.0653 50.23 23.6047 50.23 21.7672C50.23 19.7884 48.6281 18.1865 46.6493 18.1865H39.0166V37.0326H48.6752C50.7012 37.0326 52.3973 35.3364 52.3973 33.3105C52.3973 31.2845 50.7012 29.5884 48.6752 29.5884H47.2147H43.4454C42.3147 29.5884 41.3724 28.646 41.3724 27.5153C41.3252 26.3374 42.2676 25.3951 43.3983 25.3951ZM52.3031 27.2326C54.8473 28.4105 56.5906 30.9076 56.5906 33.7345C56.5906 37.7393 53.1041 40.9902 48.8637 40.9902H36.9435C35.8128 40.9902 34.9176 40.1422 34.9176 39.1056V16.349C34.9176 15.2653 35.8128 14.3701 36.8964 14.3701H46.8377C51.031 14.3701 54.4233 17.8095 54.4233 21.9557C54.4233 23.9816 53.6223 25.8662 52.3031 27.2326Z" fill="#373536"/>
<path d="M13.433 62.2392C13.433 61.8623 13.7157 61.5796 14.0926 61.5796C14.4696 61.5796 14.7522 61.8623 14.7522 62.2392V65.6786C14.7522 66.4796 14.4224 67.1863 13.9042 67.7046C13.3859 68.2228 12.6792 68.5527 11.8782 68.5527C11.0773 68.5527 10.3705 68.2228 9.85226 67.7046C9.33399 67.1863 9.00418 66.4796 9.00418 65.6786V62.2392C9.00418 61.8623 9.28687 61.5796 9.66379 61.5796C10.0407 61.5796 10.3234 61.8623 10.3234 62.2392V65.6786C10.3234 66.1027 10.5119 66.5267 10.7946 66.8094C11.0773 67.0921 11.5013 67.2805 11.9253 67.2805C12.3494 67.2805 12.7734 67.0921 13.0561 66.8094C13.3388 66.5267 13.5272 66.1027 13.5272 65.6786V62.2392H13.433Z" fill="#373536"/>
<path d="M19.4638 67.2805C19.8407 67.2805 20.1234 67.5632 20.1234 67.9402C20.1234 68.3171 19.8407 68.5998 19.4638 68.5998H17.7205C17.0609 68.5998 16.4484 68.3171 16.0244 67.893C15.6003 67.469 15.3176 66.8565 15.3176 66.1969V62.2863C15.3176 61.9094 15.6003 61.6267 15.9772 61.6267C16.3542 61.6267 16.6369 61.9094 16.6369 62.2863V66.1969C16.6369 66.5267 16.7782 66.8094 16.9667 66.9979C17.1551 67.1863 17.4378 67.3277 17.7676 67.3277H19.4638V67.2805Z" fill="#373536"/>
<path d="M32.9859 38.6815C33.1272 40.0007 32.1849 41.1786 30.8657 41.32C29.5464 41.4613 28.3685 40.519 28.2272 39.1998L26.2484 21.1546L19.3224 38.8228V38.87V38.9171V38.9642V39.0113V39.0584C19.1811 39.294 19.0397 39.5296 18.8513 39.6709L18.8041 39.718C18.6628 39.8123 18.5215 39.9065 18.3801 40.0007L18.333 40.0478H18.2859H18.2388H18.1917H18.1445H18.0974H18.0503H18.0032H17.9561C17.7205 40.1421 17.4849 40.1892 17.2493 40.1892H17.2022H17.1551H17.108H17.0609H17.0138H16.9667C16.684 40.1892 16.4484 40.1421 16.1657 40.0478H16.1186H16.0715H16.0243H15.9772H15.9301H15.883H15.8359H15.7888C15.6474 39.9536 15.5532 39.9065 15.4118 39.8123C15.3647 39.8123 15.3647 39.7652 15.3176 39.7652L15.2705 39.718L15.2234 39.6709C15.1763 39.6238 15.1763 39.6238 15.1763 39.5767C15.082 39.4825 14.9878 39.3411 14.9407 39.1998V39.1527V39.1055V39.0584V39.0113V38.9642V38.9171V38.87V38.8228L7.92052 21.1546L5.94168 39.1998C5.80033 40.519 4.62245 41.4613 3.30322 41.32C1.984 41.1786 1.04169 40.0007 1.18304 38.6815L3.49169 17.3854C3.5388 17.1498 3.58592 16.9142 3.63303 16.6316C3.72726 16.396 3.82149 16.1604 3.91572 15.9248C4.52822 14.7941 5.61187 14.0402 6.88399 13.8518C6.9311 13.8518 6.97822 13.8518 7.02533 13.8518C7.21379 13.8518 7.44937 13.8046 7.63783 13.8518C7.87341 13.8518 8.1561 13.8989 8.34456 13.946C9.56956 14.2287 10.6532 15.0767 11.1244 16.3489L17.0609 31.3786L22.9974 16.3489C23.5157 15.0767 24.5522 14.2287 25.7772 13.946C26.0128 13.8989 26.2484 13.8518 26.4839 13.8518C26.6724 13.8518 26.908 13.8518 27.0964 13.8518C27.1436 13.8518 27.1907 13.8518 27.2378 13.8518C28.557 14.0402 29.6407 14.7941 30.206 15.9248C30.3474 16.1604 30.4416 16.396 30.4887 16.6316C30.583 16.8671 30.6301 17.1027 30.6301 17.3854L32.9859 38.6815Z" fill="#373536"/>
<path d="M8.72148 67.846C8.7686 68.1758 8.53302 68.5056 8.1561 68.5527C7.82629 68.5998 7.49648 68.3642 7.44937 67.9873L6.88399 63.37L4.95226 67.8931C4.81091 68.2229 4.43399 68.3642 4.10419 68.2229C3.96284 68.1758 3.82149 68.0344 3.77438 67.8931L1.84265 63.37L1.27727 67.9873C1.23015 68.3171 0.900347 68.5998 0.57054 68.5527C0.240733 68.5056 -0.0419592 68.1758 0.00515612 67.846L0.664771 62.4748C0.711886 62.145 0.900348 61.8152 1.23015 61.6739C1.27727 61.6739 1.32438 61.6268 1.3715 61.6268H1.41861C1.46573 61.6268 1.51285 61.5797 1.60708 61.5797C1.93688 61.5325 2.26669 61.6268 2.50227 61.8623C2.54938 61.9095 2.5965 61.9566 2.64361 62.0037C2.69073 62.0508 2.69073 62.0979 2.73784 62.145C2.73784 62.145 2.78496 62.1921 2.78496 62.2393L4.43399 66.1027L6.08303 62.2393C6.22437 61.9095 6.50706 61.721 6.83687 61.6268C6.88399 61.6268 6.97822 61.6268 7.02533 61.5797C7.07245 61.5797 7.11956 61.5797 7.16668 61.5797H7.21379C7.5436 61.6268 7.82629 61.8152 8.01475 62.0979C8.06187 62.145 8.06187 62.2393 8.10898 62.2864C8.10898 62.3335 8.1561 62.3806 8.1561 62.4277C8.1561 62.4748 8.1561 62.4748 8.1561 62.522L8.72148 67.846Z" fill="#373536"/>
<path d="M22.2907 67.9402C22.2907 68.3171 22.008 68.5998 21.6311 68.5998C21.3012 68.5998 20.9714 68.3171 20.9714 67.9402V62.8517H19.1339C18.757 62.8517 18.4743 62.569 18.4743 62.1921C18.4743 61.8152 18.757 61.5325 19.1339 61.5325H21.5839H24.0339C24.4109 61.5325 24.6935 61.8152 24.6935 62.1921C24.6935 62.569 24.4109 62.8517 24.0339 62.8517H22.1964V67.9402H22.2907Z" fill="#373536"/>
<path d="M26.2484 67.9402C26.2484 68.3171 25.9657 68.5998 25.5888 68.5998C25.2118 68.5998 24.9291 68.3171 24.9291 67.9402V62.2392C24.9291 61.8623 25.2118 61.5796 25.5888 61.5796C25.9657 61.5796 26.2484 61.8623 26.2484 62.2392V67.9402Z" fill="#373536"/>
<path d="M39.3935 67.8459C39.4407 68.1757 39.2051 68.5055 38.8281 68.5527C38.4983 68.5998 38.1685 68.3642 38.1214 67.9873L37.8858 66.1969H35.6714C35.2945 66.1969 35.0118 65.9142 35.0118 65.5373C35.0118 65.1603 35.2945 64.8777 35.6714 64.8777H37.7445L37.6974 64.4065V64.3594C37.6974 64.2652 37.6503 64.1238 37.6032 64.0296C37.556 63.8882 37.5089 63.794 37.4618 63.6998C37.2262 63.1815 36.7551 62.8517 36.1897 62.8517C36.0955 62.8517 35.9541 62.8517 35.8599 62.8988C35.7657 62.8988 35.6714 62.9459 35.5772 62.993C35.106 63.2286 34.7762 63.794 34.682 64.4065L34.3051 67.9402C34.258 68.27 33.9282 68.5526 33.5984 68.5055C33.2685 68.4584 32.9859 68.1286 33.033 67.7988L33.4099 64.2652C33.5512 63.2286 34.1166 62.2863 35.0118 61.8623C35.2003 61.768 35.3887 61.7209 35.5772 61.6738C35.7657 61.6267 36.0012 61.5796 36.1897 61.5796C37.3205 61.5796 38.1685 62.2392 38.6397 63.1344C38.7339 63.3229 38.781 63.5113 38.8753 63.6998C38.9224 63.8411 38.9695 64.0296 38.9695 64.218V64.2652L39.3935 67.8459Z" fill="#373536"/>
<path d="M41.3724 67.9402C41.3724 68.3171 41.0897 68.5998 40.7127 68.5998C40.3358 68.5998 40.0531 68.3171 40.0531 67.9402V62.6633C40.0531 62.6161 40.0531 62.569 40.0531 62.569C40.0531 62.4748 40.1002 62.4277 40.1002 62.3806C40.1002 62.3334 40.1474 62.2863 40.1474 62.2863C40.2416 62.0979 40.4301 61.9565 40.6656 61.8623C40.7127 61.8623 40.7127 61.8623 40.7599 61.8623H40.807C40.8541 61.8623 40.9012 61.8623 40.9483 61.8623C41.231 61.8623 41.4666 62.0036 41.6079 62.1921L45.0002 66.5267V62.3334C45.0002 61.9565 45.2829 61.6738 45.6598 61.6738C46.0368 61.6738 46.3195 61.9565 46.3195 62.3334V67.6104C46.3195 67.893 46.1781 68.1286 45.9897 68.3171C45.9425 68.3642 45.8954 68.3642 45.8483 68.4113C45.8012 68.4113 45.8012 68.4584 45.7541 68.4584H45.707C45.4714 68.5527 45.2358 68.5055 45.0002 68.4113C44.9531 68.4113 44.9531 68.3642 44.906 68.3642C44.8589 68.3171 44.8118 68.3171 44.7647 68.27C44.7175 68.27 44.7175 68.2229 44.6704 68.1757V68.1286L41.2781 63.794V67.9402H41.3724Z" fill="#373536"/>
<path d="M51.3608 67.2805C51.7377 67.2805 52.0204 67.5632 52.0204 67.9402C52.0204 68.3171 51.7377 68.5998 51.3608 68.5998H49.4762C48.7695 68.5998 48.157 68.3171 47.6858 67.8459C47.2147 67.3748 46.932 66.7623 46.932 66.0555V64.1238C46.932 63.4171 47.2147 62.8046 47.6858 62.3334C48.157 61.8623 48.7695 61.5796 49.4762 61.5796H51.3608C51.7377 61.5796 52.0204 61.8623 52.0204 62.2392C52.0204 62.6161 51.7377 62.8988 51.3608 62.8988H49.4762C49.1464 62.8988 48.8166 63.0402 48.581 63.2757C48.3454 63.5113 48.2041 63.794 48.2041 64.1709V66.1027C48.2041 66.4325 48.3454 66.7623 48.581 66.9978C48.8166 67.2334 49.0993 67.3748 49.4762 67.3748H51.3608V67.2805Z" fill="#373536"/>
<path d="M55.0358 61.5796C55.8368 61.5796 56.5906 61.9094 57.156 62.4277C57.7214 62.9459 58.0512 63.6998 58.0512 64.4536V65.6315C58.0512 66.4325 57.7214 67.1392 57.156 67.7046C56.6377 68.2228 55.8839 68.5527 55.0829 68.5527C54.282 68.5527 53.5281 68.2228 52.9627 67.7046C52.3973 67.1863 52.0675 66.4796 52.0675 65.6786V64.5007C52.0675 63.6998 52.3973 62.993 52.9627 62.4277C53.481 61.9094 54.2348 61.5796 55.0358 61.5796ZM55.0358 62.8517C54.5646 62.8517 54.1406 63.0402 53.8108 63.3229C53.5281 63.6055 53.3396 64.0296 53.3396 64.4536V65.6315C53.3396 66.0555 53.5281 66.4796 53.8108 66.7623C54.1406 67.045 54.5646 67.2334 55.0358 67.2334C55.507 67.2334 55.931 67.045 56.2608 66.7623C56.5435 66.4796 56.7319 66.0555 56.7319 65.6315V64.4536C56.7319 64.0296 56.5435 63.6055 56.2608 63.3229C55.9781 63.0402 55.507 62.8517 55.0358 62.8517Z" fill="#373536"/>
<path d="M26.8137 65.019V62.2392C26.8137 62.145 26.8137 62.0507 26.8609 62.0036C26.908 61.9094 26.9551 61.8623 27.0022 61.768C27.0964 61.6738 27.2378 61.5796 27.4262 61.5796H27.4734H29.9234C30.4887 61.5796 31.007 61.8152 31.3839 62.1921C31.7609 62.569 31.9964 63.0873 31.9964 63.6527C31.9964 64.0296 31.9022 64.4065 31.6666 64.7363C31.808 64.8305 31.9022 64.9248 32.0435 65.019L32.0907 65.0661C32.4205 65.443 32.656 65.9613 32.656 66.4796C32.656 67.045 32.4205 67.5632 32.0435 67.9402C31.6666 68.3171 31.1484 68.5527 30.583 68.5527H27.4262C27.0493 68.5527 26.7666 68.27 26.7666 67.893V65.019H26.8137ZM28.0859 62.8517V65.019V67.2805H30.5359C30.7714 67.2805 30.9599 67.1863 31.1012 67.045C31.2426 66.9036 31.3368 66.7152 31.3368 66.4796C31.3368 66.2911 31.2426 66.1027 31.1012 65.9142H31.0541C30.9128 65.7728 30.7243 65.6786 30.4887 65.6786H29.8762H29.6407C29.3109 65.6786 28.9811 65.3959 28.9811 65.019C28.9811 64.6892 29.2637 64.3594 29.6407 64.3594H29.8762H29.9234C30.1118 64.3594 30.3003 64.2652 30.3945 64.1238C30.5359 63.9825 30.6301 63.794 30.6301 63.6055C30.6301 63.4171 30.5359 63.2286 30.3945 63.0873C30.2532 62.9459 30.0647 62.8517 29.8762 62.8517H28.0859Z" fill="#373536"/>
</svg>
