<svg width="58" height="76" viewBox="0 0 58 76" fill="none" xmlns="http://www.w3.org/2000/svg">
<path fill-rule="evenodd" clip-rule="evenodd" d="M11.9169 0H46.5949H48.4293C50.991 0 53.0941 2.21383 53.0941 4.93367V7.28982C53.0941 10.6264 48.5716 10.6106 48.5716 7.30563V6.00896C48.5716 5.18668 47.9074 4.52253 47.0852 4.52253H10.5096C9.68727 4.52253 9.02313 5.18668 9.02313 6.00896V7.27401C9.02313 10.5947 4.72197 10.5631 4.72197 7.35307V4.93367C4.72197 2.21383 6.82511 0 9.38683 0H11.9169ZM28.6629 55.0452H52.3509C57.759 55.0452 57.8064 49.3051 57.2688 46.4588C56.9683 44.5454 53.7266 44.5612 53.3629 46.4588V48.6726C53.3629 49.6846 52.5407 50.5069 51.5286 50.5069H28.6629H26.8286H6.11352C5.10149 50.5069 4.27921 49.6846 4.27921 48.6726V46.4588C3.91551 44.5612 0.673832 44.5454 0.373384 46.4588C-0.180073 49.2893 -0.11682 55.0452 5.29125 55.0452H26.8444H28.6629Z" fill="#1866AC"/>
<path d="M1.35793 62.77H4.50296C4.6397 62.77 4.74226 62.8156 4.83342 62.8954C4.92458 62.9751 4.97016 63.0777 4.97016 63.1916C4.97016 63.3056 4.92458 63.4081 4.83342 63.4879C4.74226 63.5677 4.6397 63.6133 4.50296 63.6133H3.38625V66.9292C3.38625 67.066 3.34067 67.1799 3.2609 67.2597C3.18113 67.3394 3.06718 67.385 2.93044 67.385C2.78231 67.385 2.66836 67.3394 2.58859 67.2597C2.50883 67.1799 2.46325 67.066 2.46325 66.9292V63.6133H1.34653C1.20979 63.6133 1.10723 63.5677 1.01607 63.4879C0.924914 63.4081 0.879333 63.3056 0.879333 63.1916C0.879333 63.0777 0.924914 62.9751 1.01607 62.8954C1.10723 62.8156 1.22119 62.77 1.35793 62.77Z" fill="#373536"/>
<path d="M5.95014 62.77H7.62521C8.1266 62.77 8.52542 62.9068 8.83309 63.1916C9.14076 63.4765 9.30029 63.8184 9.30029 64.2172C9.30029 64.3995 9.2661 64.559 9.20913 64.7072C9.15215 64.8553 9.08378 64.9807 8.99262 65.0604C8.91286 65.1516 8.82169 65.22 8.74193 65.2883C8.66216 65.3567 8.59379 65.3909 8.53682 65.4137L8.44566 65.4479V65.482L9.36866 66.6329C9.45982 66.7469 9.5054 66.8494 9.5054 66.9634C9.5054 67.0773 9.47121 67.1799 9.39145 67.2597C9.31168 67.3394 9.20913 67.385 9.08378 67.385C9.01541 67.385 8.94704 67.3736 8.89007 67.3394C8.83309 67.3052 8.78751 67.2825 8.76472 67.2597L8.73053 67.2255L7.47708 65.653H6.42873V66.9292C6.42873 67.066 6.38315 67.1685 6.29199 67.2597C6.20083 67.3508 6.09828 67.3964 5.96154 67.3964C5.8248 67.3964 5.72224 67.3508 5.63108 67.2597C5.53992 67.1685 5.49434 67.066 5.49434 66.9292V63.2258C5.49434 63.0891 5.53992 62.9865 5.63108 62.8954C5.72224 62.8042 5.8248 62.77 5.95014 62.77ZM8.3431 64.2172C8.3431 64.0349 8.27473 63.8867 8.14939 63.7842C8.02404 63.6816 7.84172 63.6246 7.61382 63.6246H6.41734V64.8097H7.63661C7.86451 64.8097 8.03544 64.7528 8.16078 64.6388C8.28613 64.5249 8.3431 64.3881 8.3431 64.2172Z" fill="#373536"/>
<path d="M11.5223 62.7815C11.6362 62.6904 11.7844 62.6448 11.9439 62.6448C12.1148 62.6448 12.2516 62.7017 12.3655 62.8043C12.4795 62.9069 12.5706 63.0322 12.6276 63.1803L14.109 66.6672C14.1545 66.7698 14.1773 66.8723 14.1773 66.9521C14.1773 67.0774 14.1318 67.18 14.052 67.2712C13.9608 67.3623 13.8583 67.4079 13.7443 67.4079C13.5278 67.4079 13.3683 67.2826 13.2771 67.0205L12.9809 66.2684H10.9297L10.6335 67.0205C10.5309 67.2826 10.3714 67.4193 10.1435 67.4193C10.0181 67.4193 9.90419 67.3737 9.81303 67.2826C9.72186 67.1914 9.67628 67.0888 9.67628 66.9521C9.67628 66.9179 9.67628 66.8723 9.68768 66.8154C9.69907 66.7698 9.71047 66.7242 9.72186 66.7014L9.73326 66.6558L11.2374 63.112C11.3172 62.9752 11.3969 62.8613 11.5223 62.7815ZM11.9439 63.7273L11.2716 65.4024H12.6504L11.9781 63.7273H11.9439Z" fill="#373536"/>
<path d="M17.8693 65.7213H17.9035V63.1916C17.9035 63.0549 17.9491 62.941 18.0289 62.8612C18.1086 62.7814 18.2226 62.7358 18.3707 62.7358C18.5189 62.7358 18.6328 62.7814 18.7126 62.8612C18.7923 62.941 18.8379 63.0549 18.8379 63.1916V66.9292C18.8379 67.066 18.7923 67.1685 18.7012 67.2597C18.61 67.3508 18.5075 67.3964 18.3707 67.3964C18.177 67.3964 18.0289 67.3167 17.9149 67.1685L15.7841 64.4109H15.7385V66.9406C15.7385 67.0774 15.6929 67.1913 15.6131 67.2711C15.5334 67.3508 15.4194 67.3964 15.2713 67.3964C15.1231 67.3964 15.0092 67.3508 14.9294 67.2711C14.8497 67.1913 14.8041 67.0774 14.8041 66.9406V63.203C14.8041 63.0663 14.8497 62.9637 14.9408 62.8726C15.032 62.7814 15.1345 62.7358 15.2713 62.7358C15.465 62.7358 15.6131 62.8156 15.7271 62.9637L17.8693 65.7213Z" fill="#373536"/>
<path d="M21.379 66.6441C22.0741 66.6441 22.4274 66.439 22.4274 66.0174C22.4274 65.9148 22.3818 65.8237 22.2792 65.7439C22.1767 65.6641 22.0513 65.6072 21.8804 65.573C21.7209 65.5274 21.5386 65.4818 21.3449 65.4362C21.1511 65.3907 20.9574 65.3223 20.7523 65.2539C20.5586 65.1855 20.3763 65.1058 20.2167 65.0032C20.0572 64.9121 19.9205 64.7753 19.8179 64.6044C19.7154 64.4335 19.6698 64.2398 19.6698 64.0119C19.6698 63.6358 19.8293 63.3054 20.1598 63.0319C20.4902 62.7584 20.9346 62.6331 21.5044 62.6331C22.0172 62.6331 22.4274 62.747 22.7578 62.9635C23.0883 63.18 23.2478 63.4079 23.2478 63.613C23.2478 63.727 23.2022 63.8295 23.1225 63.9093C23.0427 63.9891 22.9402 64.0346 22.8262 64.0346C22.6895 64.0346 22.5755 63.9777 22.4616 63.8751C22.3704 63.784 22.302 63.727 22.2451 63.6814C22.1881 63.6358 22.0969 63.5902 21.9716 63.5447C21.8462 63.4991 21.6867 63.4763 21.5158 63.4763C21.2195 63.4763 21.003 63.5333 20.8549 63.6358C20.7067 63.7384 20.627 63.8637 20.627 64.0119C20.627 64.1258 20.6725 64.217 20.7751 64.2967C20.8777 64.3765 21.003 64.4335 21.1625 64.4791C21.3221 64.5246 21.5044 64.5816 21.6981 64.6386C21.8918 64.6956 22.0855 64.7525 22.2906 64.8095C22.4844 64.8665 22.6667 64.9463 22.8262 65.0374C22.9857 65.1286 23.1225 65.2653 23.225 65.4248C23.3276 65.5844 23.3732 65.7895 23.3732 66.0174C23.3732 66.4276 23.2022 66.7809 22.849 67.0657C22.4958 67.3506 22.0058 67.4874 21.379 67.4874C20.8663 67.4874 20.4332 67.362 20.08 67.1113C19.7268 66.8606 19.5444 66.6213 19.5444 66.4048C19.5444 66.2909 19.59 66.1883 19.6698 66.1085C19.7495 66.0288 19.8521 65.9832 19.9661 65.9832C20.1028 65.9832 20.2167 66.0402 20.3307 66.1427C20.4219 66.2339 20.513 66.3137 20.57 66.3706C20.6384 66.4276 20.7409 66.4846 20.9004 66.5416C21.0486 66.6099 21.2081 66.6441 21.379 66.6441Z" fill="#373536"/>
<path d="M27.3158 63.6246H25.014V64.8438H26.5182C26.6321 64.8438 26.7347 64.8894 26.8145 64.9692C26.8942 65.049 26.9398 65.1515 26.9398 65.2655C26.9398 65.3794 26.8942 65.482 26.8145 65.5617C26.7347 65.6415 26.6321 65.6871 26.5182 65.6871H25.014V66.9291C25.014 67.0659 24.9685 67.1684 24.8773 67.2596C24.7861 67.3508 24.6836 67.3963 24.5468 67.3963C24.4101 67.3963 24.3076 67.3508 24.2164 67.2596C24.1252 67.1684 24.0797 67.0659 24.0797 66.9291V63.2257C24.0797 63.089 24.1252 62.9864 24.2164 62.8953C24.3076 62.8041 24.4101 62.7585 24.5468 62.7585H27.3045C27.4184 62.7585 27.521 62.8041 27.6007 62.8839C27.6805 62.9637 27.7261 63.0662 27.7261 63.1802C27.7261 63.2941 27.6805 63.3967 27.6007 63.4764C27.521 63.5562 27.4298 63.6246 27.3158 63.6246Z" fill="#373536"/>
<path d="M31.5206 63.6245H29.1847V64.6728H30.9281C31.0421 64.6728 31.1332 64.707 31.213 64.7868C31.2927 64.8665 31.3269 64.9577 31.3269 65.0717C31.3269 65.1856 31.2927 65.2768 31.213 65.3565C31.1332 65.4363 31.0421 65.4705 30.9281 65.4705H29.1847V66.5188H31.5776C31.6916 66.5188 31.7941 66.5644 31.8739 66.6442C31.9537 66.7239 31.9992 66.8265 31.9992 66.9404C31.9992 67.0544 31.9537 67.157 31.8739 67.2367C31.7941 67.3165 31.6916 67.3621 31.5776 67.3621H28.7289C28.5921 67.3621 28.4896 67.3165 28.3984 67.2253C28.3072 67.1342 28.2617 67.0316 28.2617 66.8949V63.2143C28.2617 63.0775 28.3072 62.975 28.3984 62.8838C28.4896 62.7927 28.5921 62.7471 28.7289 62.7471H31.5206C31.6346 62.7471 31.7372 62.7927 31.8169 62.8724C31.8967 62.9522 31.9423 63.0547 31.9423 63.1687C31.9423 63.2826 31.8967 63.3852 31.8169 63.465C31.7372 63.5447 31.6346 63.6245 31.5206 63.6245Z" fill="#373536"/>
<path d="M33.059 62.77H34.7341C35.2354 62.77 35.6343 62.9068 35.9419 63.1916C36.2496 63.4765 36.4091 63.8184 36.4091 64.2172C36.4091 64.3995 36.3749 64.559 36.318 64.7072C36.261 64.8553 36.1926 64.9807 36.1015 65.0604C36.0217 65.1516 35.9305 65.22 35.8508 65.2883C35.771 65.3567 35.7026 65.3909 35.6457 65.4137L35.5545 65.4479V65.482L36.4775 66.6329C36.5687 66.7469 36.6142 66.8494 36.6142 66.9634C36.6142 67.0773 36.5801 67.1799 36.5003 67.2597C36.4205 67.3394 36.318 67.385 36.1926 67.385C36.1243 67.385 36.0559 67.3736 35.9989 67.3394C35.9419 67.3052 35.8964 67.2825 35.8736 67.2597L35.8394 67.2255L34.5859 65.653H33.5376V66.9292C33.5376 67.066 33.492 67.1685 33.4008 67.2597C33.3097 67.3508 33.2071 67.3964 33.0704 67.3964C32.9336 67.3964 32.8311 67.3508 32.7399 67.2597C32.6488 67.1685 32.6032 67.066 32.6032 66.9292V63.2258C32.6032 63.0891 32.6488 62.9865 32.7399 62.8954C32.8197 62.8156 32.9336 62.77 33.059 62.77ZM35.4519 64.2172C35.4519 64.0349 35.3836 63.8867 35.2582 63.7842C35.1329 63.6816 34.9506 63.6246 34.7227 63.6246H33.5034V64.8097H34.7227C34.9506 64.8097 35.1215 64.7528 35.2468 64.6388C35.395 64.5249 35.4519 64.3881 35.4519 64.2172Z" fill="#373536"/>
<path d="M40.5113 63.6246H38.1867V64.6729H39.9302C40.0441 64.6729 40.1353 64.7071 40.2151 64.7869C40.2948 64.8666 40.329 64.9578 40.329 65.0717C40.329 65.1857 40.2948 65.2769 40.2151 65.3566C40.1353 65.4364 40.0441 65.4706 39.9302 65.4706H38.1867V66.5189H40.5797C40.6937 66.5189 40.7962 66.5645 40.876 66.6443C40.9557 66.724 41.0013 66.8266 41.0013 66.9405C41.0013 67.0545 40.9557 67.157 40.876 67.2368C40.7962 67.3166 40.6937 67.3621 40.5797 67.3621H37.7195C37.5828 67.3621 37.4803 67.3166 37.3891 67.2254C37.2979 67.1342 37.2523 67.0317 37.2523 66.8949V63.2143C37.2523 63.0776 37.2979 62.9751 37.3891 62.8839C37.4803 62.7927 37.5828 62.7472 37.7195 62.7472H40.5113C40.6253 62.7472 40.7278 62.7927 40.8076 62.8725C40.8874 62.9523 40.933 63.0548 40.933 63.1688C40.933 63.2827 40.8874 63.3853 40.8076 63.465C40.7278 63.579 40.6253 63.6246 40.5113 63.6246ZM39.1895 61.4253L39.1667 61.4367L38.597 62.1204C38.5286 62.2116 38.4374 62.2572 38.3235 62.2572C38.2323 62.2572 38.164 62.223 38.107 62.166C38.05 62.109 38.0158 62.0407 38.0158 61.9495C38.0158 61.9153 38.0158 61.8811 38.0272 61.8469C38.0386 61.8128 38.05 61.79 38.0614 61.7672L38.0842 61.7444L38.6767 60.9923C38.8021 60.8214 38.973 60.7302 39.1667 60.7302C39.3604 60.7302 39.5314 60.8214 39.6567 60.9923L40.2493 61.7444C40.2948 61.8128 40.3176 61.8697 40.3176 61.9381C40.3176 62.0179 40.2948 62.0862 40.2379 62.1432C40.1809 62.2002 40.1125 62.223 40.0327 62.223C39.9872 62.223 39.9416 62.2116 39.896 62.1888C39.8504 62.166 39.8162 62.1432 39.7934 62.1204L39.7707 62.0862L39.1895 61.4253Z" fill="#373536"/>
<path d="M44.6478 65.7213H44.6819V63.1916C44.6819 63.0549 44.7275 62.941 44.8073 62.8612C44.8871 62.7814 45.001 62.7358 45.1491 62.7358C45.2973 62.7358 45.4112 62.7814 45.491 62.8612C45.5708 62.941 45.6163 63.0549 45.6163 63.1916V66.9292C45.6163 67.066 45.5708 67.1685 45.4796 67.2597C45.3884 67.3508 45.2859 67.3964 45.1491 67.3964C44.9554 67.3964 44.8073 67.3167 44.6933 67.1685L42.5625 64.4109H42.5169V66.9406C42.5169 67.0774 42.4713 67.1913 42.3915 67.2711C42.3118 67.3508 42.1978 67.3964 42.0497 67.3964C41.9016 67.3964 41.7876 67.3508 41.7078 67.2711C41.6281 67.1913 41.5825 67.0774 41.5825 66.9406V63.203C41.5825 63.0663 41.6281 62.9637 41.7192 62.8726C41.8104 62.7814 41.9129 62.7358 42.0497 62.7358C42.2434 62.7358 42.3915 62.8156 42.5055 62.9637L44.6478 65.7213Z" fill="#373536"/>
<path d="M48.5562 66.6444C48.7271 66.6444 48.8867 66.6103 49.0348 66.5533C49.1829 66.4963 49.2969 66.4393 49.3653 66.3824C49.4336 66.3254 49.5134 66.257 49.6046 66.1545C49.7185 66.0405 49.8325 65.9949 49.9692 65.9949C50.0832 65.9949 50.1857 66.0405 50.2655 66.1203C50.3452 66.2 50.3908 66.3026 50.3908 66.4165C50.3908 66.633 50.2085 66.8609 49.8553 67.123C49.502 67.3737 49.0576 67.4991 48.5562 67.4991C47.9523 67.4991 47.4623 67.3167 47.0749 66.9521C46.6874 66.5875 46.4937 66.1317 46.4937 65.5961V64.5477C46.4937 64.0122 46.6874 63.5678 47.0749 63.1917C47.4623 62.8157 47.9637 62.6448 48.5562 62.6448C49.069 62.6448 49.4792 62.7587 49.8097 62.9752C50.1401 63.1917 50.2997 63.4196 50.2997 63.6248C50.2997 63.7387 50.2541 63.8413 50.1743 63.921C50.0946 64.0008 49.992 64.0464 49.878 64.0464C49.7413 64.0464 49.6274 63.9894 49.5134 63.8868C49.4222 63.7957 49.3539 63.7387 49.2969 63.6931C49.2399 63.6475 49.1488 63.602 49.0234 63.5564C48.8981 63.5108 48.7385 63.488 48.5676 63.488C48.2258 63.488 47.9523 63.5906 47.7358 63.7843C47.5193 63.978 47.4167 64.2287 47.4167 64.5364V65.5847C47.4167 65.881 47.5193 66.1317 47.7358 66.3368C47.9295 66.5419 48.2144 66.6444 48.5562 66.6444Z" fill="#373536"/>
<path d="M51.9291 63.203V66.9406C51.9291 67.0774 51.8836 67.1913 51.8038 67.2711C51.724 67.3508 51.6101 67.3964 51.4619 67.3964C51.3138 67.3964 51.1999 67.3508 51.1201 67.2711C51.0403 67.1913 50.9948 67.0774 50.9948 66.9406V63.203C50.9948 63.0663 51.0403 62.9637 51.1315 62.8726C51.2227 62.7814 51.3252 62.7358 51.4619 62.7358C51.5987 62.7358 51.7012 62.7814 51.7924 62.8726C51.8836 62.9637 51.9291 63.0663 51.9291 63.203Z" fill="#373536"/>
<path d="M54.345 62.7815C54.4589 62.6904 54.607 62.6448 54.7666 62.6448C54.9375 62.6448 55.0742 62.7017 55.1882 62.8043C55.3021 62.9069 55.3933 63.0322 55.4503 63.1803L56.9316 66.6672C56.9772 66.7698 57 66.8723 57 66.9521C57 67.0774 56.9544 67.18 56.8747 67.2712C56.7835 67.3623 56.6809 67.4079 56.567 67.4079C56.3505 67.4079 56.191 67.2826 56.0998 67.0205L55.8035 66.2684H53.7524L53.4561 67.0205C53.3536 67.2826 53.1941 67.4193 52.9662 67.4193C52.8408 67.4193 52.7269 67.3737 52.6357 67.2826C52.5445 67.1914 52.499 67.0888 52.499 66.9521C52.499 66.9179 52.499 66.8723 52.5104 66.8154C52.5218 66.7698 52.5331 66.7242 52.5445 66.7014L52.5559 66.6558L54.0601 63.112C54.1398 62.9752 54.231 62.8613 54.345 62.7815ZM54.7666 63.7273L54.0943 65.4024H55.4731L54.8008 63.7273H54.7666Z" fill="#373536"/>
<path d="M12.6504 70.644H14.2913C14.7585 70.644 15.146 70.758 15.4308 70.9973C15.7157 71.2366 15.8638 71.5101 15.8638 71.8291C15.8638 71.9773 15.8411 72.1026 15.7955 72.228C15.7499 72.3419 15.6929 72.4331 15.6246 72.5014C15.5562 72.5698 15.4878 72.6268 15.4194 72.6724C15.3511 72.7179 15.2941 72.7521 15.2485 72.7635L15.1801 72.7863V72.8205C15.2029 72.8205 15.2371 72.8319 15.2827 72.8433C15.3283 72.8547 15.3967 72.8775 15.5106 72.9344C15.6246 72.98 15.7157 73.0484 15.8069 73.1168C15.898 73.1851 15.9664 73.2991 16.0348 73.4472C16.1031 73.5954 16.1373 73.7549 16.1373 73.9372C16.1373 74.2791 15.9778 74.5867 15.6701 74.8488C15.3625 75.1109 14.9522 75.2476 14.4623 75.2476H12.6618C12.5251 75.2476 12.4225 75.2021 12.3314 75.1109C12.2402 75.0197 12.1946 74.9172 12.1946 74.7804V71.0998C12.1946 70.9631 12.2402 70.8605 12.3314 70.7694C12.4111 70.6896 12.5137 70.644 12.6504 70.644ZM13.1062 71.4987V72.4559H14.2913C14.4964 72.4559 14.656 72.4103 14.7585 72.3191C14.8611 72.228 14.9181 72.114 14.9181 71.9545C14.9181 71.8177 14.8611 71.7038 14.7585 71.624C14.656 71.5443 14.4964 71.4987 14.2913 71.4987H13.1062ZM13.1062 73.2421V74.393H14.4509C14.6902 74.393 14.8611 74.3474 14.9864 74.2449C15.1118 74.1423 15.1688 74.0056 15.1688 73.8347C15.1688 73.6523 15.1118 73.5042 14.9864 73.4016C14.8611 73.2991 14.6902 73.2421 14.4395 73.2421H13.1062Z" fill="#373536"/>
<path d="M18.2112 70.6553C18.3252 70.5641 18.4733 70.5186 18.6328 70.5186C18.8037 70.5186 18.9405 70.5755 19.0544 70.6781C19.1684 70.7806 19.2595 70.906 19.3165 71.0541L20.7979 74.541C20.8435 74.6436 20.8662 74.7461 20.8662 74.8259C20.8662 74.9512 20.8207 75.0538 20.7409 75.1449C20.6497 75.2361 20.5472 75.2817 20.4218 75.2817C20.2053 75.2817 20.0458 75.1563 19.9546 74.8943L19.6584 74.1422H17.6073L17.311 74.8943C17.2084 75.1563 17.0489 75.2931 16.821 75.2931C16.6957 75.2931 16.5817 75.2475 16.4905 75.1563C16.3994 75.0652 16.3538 74.9626 16.3538 74.8259C16.3538 74.7917 16.3538 74.7461 16.3652 74.6891C16.3766 74.6436 16.388 74.598 16.3994 74.5752L16.4108 74.5296L17.9149 70.9857C18.0061 70.849 18.0972 70.7465 18.2112 70.6553ZM18.6328 71.6011L17.9605 73.2762H19.3393L18.667 71.6011H18.6328Z" fill="#373536"/>
<path d="M24.5583 73.6068H24.5925V71.0771C24.5925 70.9403 24.638 70.8264 24.7178 70.7466C24.7976 70.6668 24.9115 70.6213 25.0596 70.6213C25.2078 70.6213 25.3217 70.6668 25.4015 70.7466C25.4813 70.8264 25.5268 70.9403 25.5268 71.0771V74.8146C25.5268 74.9514 25.4813 75.0539 25.3901 75.1451C25.2989 75.2363 25.1964 75.2818 25.0596 75.2818C24.8659 75.2818 24.7178 75.2021 24.6038 75.0539L22.4616 72.2849H22.4274V74.8146C22.4274 74.9514 22.3818 75.0653 22.302 75.1451C22.2223 75.2249 22.1083 75.2704 21.9602 75.2704C21.8121 75.2704 21.6981 75.2249 21.6183 75.1451C21.5386 75.0653 21.493 74.9514 21.493 74.8146V71.0771C21.493 70.9403 21.5386 70.8378 21.6297 70.7466C21.7209 70.6554 21.8235 70.6099 21.9602 70.6099C22.1539 70.6099 22.302 70.6896 22.416 70.8378L24.5583 73.6068Z" fill="#373536"/>
<path d="M28.4668 74.5182C28.6377 74.5182 28.7972 74.484 28.9454 74.4271C29.0935 74.3701 29.2074 74.3131 29.2758 74.2561C29.3442 74.1992 29.424 74.1308 29.5151 74.0282C29.6291 73.9143 29.743 73.8687 29.8798 73.8687C29.9937 73.8687 30.0963 73.9143 30.176 73.994C30.2558 74.0738 30.3014 74.1764 30.3014 74.2903C30.3014 74.5068 30.1191 74.7347 29.7658 74.9968C29.4126 75.2475 28.9682 75.3728 28.4668 75.3728C27.8628 75.3728 27.3728 75.1905 26.9854 74.8259C26.598 74.4612 26.4043 74.0054 26.4043 73.4699V72.4215C26.4043 71.886 26.598 71.4416 26.9854 71.0655C27.3728 70.7009 27.8742 70.5186 28.4668 70.5186C28.9795 70.5186 29.3898 70.6325 29.7202 70.849C30.0507 71.0655 30.2102 71.2934 30.2102 71.4985C30.2102 71.6125 30.1646 71.715 30.0849 71.7948C30.0051 71.8746 29.9025 71.9201 29.7886 71.9201C29.6519 71.9201 29.5379 71.8632 29.424 71.7606C29.3328 71.6695 29.2644 71.6125 29.2075 71.5669C29.1505 71.5213 29.0593 71.4757 28.934 71.4302C28.8086 71.3846 28.6491 71.3618 28.4782 71.3618C28.1363 71.3618 27.8628 71.4643 27.6463 71.6581C27.4298 71.8518 27.3273 72.1025 27.3273 72.4101V73.4585C27.3273 73.7547 27.4298 74.0054 27.6463 74.2106C27.8514 74.4271 28.1249 74.5182 28.4668 74.5182Z" fill="#373536"/>
<path d="M32.2955 70.6553C32.4094 70.5641 32.5576 70.5185 32.7171 70.5185C32.888 70.5185 33.0248 70.5755 33.1387 70.6781C33.2527 70.7806 33.3438 70.906 33.4008 71.0541L34.8822 74.541C34.9277 74.6436 34.9505 74.7461 34.9505 74.8259C34.9505 74.9512 34.9049 75.0538 34.8252 75.1449C34.734 75.2361 34.6315 75.2817 34.5061 75.2817C34.2896 75.2817 34.1301 75.1563 34.0389 74.8942L33.7426 74.1422H31.6915L31.3953 74.8942C31.2927 75.1563 31.1332 75.2931 30.9053 75.2931C30.7799 75.2931 30.666 75.2475 30.5748 75.1563C30.4837 75.0652 30.4381 74.9626 30.4381 74.8259C30.4381 74.7917 30.4381 74.7461 30.4495 74.6891C30.4609 74.6436 30.4723 74.598 30.4837 74.5752L30.4951 74.5296L31.9992 70.9857C32.0904 70.849 32.1701 70.7464 32.2955 70.6553ZM32.7171 71.6011L32.0448 73.2761H33.4236L32.7513 71.6011H32.7171ZM32.5006 69.7665C32.5006 69.7323 32.5006 69.6867 32.512 69.6525C32.5234 69.6183 32.5348 69.5841 32.5462 69.5614L32.5576 69.5386L32.9564 68.8207C33.0475 68.6498 33.1843 68.5586 33.3552 68.5586C33.4692 68.5586 33.5603 68.5928 33.6401 68.6725C33.7199 68.7523 33.754 68.8435 33.754 68.9574C33.754 69.0144 33.7426 69.0714 33.7199 69.1283C33.6971 69.1853 33.6743 69.2195 33.6515 69.2537L33.6173 69.2879L33.0931 69.9488C33.0248 70.04 32.9336 70.0855 32.7969 70.0855C32.7171 70.0855 32.6487 70.0627 32.5917 70.0058C32.5348 69.9146 32.5006 69.8462 32.5006 69.7665Z" fill="#373536"/>
<path d="M36.0445 70.644H37.7195C38.2209 70.644 38.6198 70.7808 38.9274 71.0657C39.2351 71.3505 39.3946 71.6924 39.3946 72.0912C39.3946 72.2735 39.3604 72.4331 39.3035 72.5812C39.2465 72.7293 39.1781 72.8547 39.0869 72.9344C39.0072 73.0256 38.916 73.094 38.8363 73.1624C38.7565 73.2307 38.6881 73.2649 38.6311 73.2877L38.54 73.3219V73.3561L39.463 74.507C39.5541 74.6209 39.5997 74.7235 39.5997 74.8374C39.5997 74.9514 39.5655 75.0539 39.4858 75.1337C39.406 75.2135 39.3035 75.259 39.1781 75.259C39.1097 75.259 39.0414 75.2476 38.9844 75.2135C38.9274 75.1793 38.8818 75.1565 38.859 75.1337L38.8249 75.0995L37.5714 73.527H36.5231V74.8032C36.5231 74.94 36.4775 75.0425 36.3863 75.1337C36.2952 75.2249 36.1926 75.2704 36.0559 75.2704C35.9191 75.2704 35.8166 75.2249 35.7254 75.1337C35.6342 75.0425 35.5887 74.94 35.5887 74.8032V71.0998C35.5887 70.9631 35.6342 70.8605 35.7254 70.7694C35.8052 70.6896 35.9191 70.644 36.0445 70.644ZM38.4488 72.0912C38.4488 71.9089 38.3805 71.7608 38.2551 71.6582C38.1298 71.5557 37.9474 71.4987 37.7195 71.4987H36.5003V72.6838H37.7195C37.9474 72.6838 38.1184 72.6268 38.2437 72.5128C38.3805 72.4103 38.4488 72.2621 38.4488 72.0912Z" fill="#373536"/>
<path d="M41.1722 71.0771V74.8146C41.1722 74.9514 41.1267 75.0653 41.0469 75.1451C40.9671 75.2249 40.8532 75.2704 40.7051 75.2704C40.5569 75.2704 40.443 75.2249 40.3632 75.1451C40.2834 75.0653 40.2379 74.9514 40.2379 74.8146V71.0771C40.2379 70.9403 40.2834 70.8378 40.3746 70.7466C40.4658 70.6554 40.5683 70.6099 40.7051 70.6099C40.8418 70.6099 40.9443 70.6554 41.0355 70.7466C41.1267 70.8378 41.1722 70.9403 41.1722 71.0771Z" fill="#373536"/>
<path d="M43.588 70.6553C43.702 70.5641 43.8501 70.5186 44.0096 70.5186C44.1806 70.5186 44.3173 70.5755 44.4312 70.6781C44.5452 70.7806 44.6364 70.906 44.6933 71.0541L46.1747 74.541C46.2203 74.6436 46.2431 74.7461 46.2431 74.8259C46.2431 74.9512 46.1975 75.0538 46.1177 75.1449C46.0266 75.2361 45.924 75.2817 45.7987 75.2817C45.5821 75.2817 45.4226 75.1563 45.3315 74.8943L45.0352 74.1422H42.9841L42.6878 74.8943C42.5852 75.1563 42.4257 75.2931 42.1978 75.2931C42.0725 75.2931 41.9585 75.2475 41.8674 75.1563C41.7762 75.0652 41.7306 74.9626 41.7306 74.8259C41.7306 74.7917 41.7306 74.7461 41.742 74.6891C41.7534 74.6436 41.7648 74.598 41.7762 74.5752L41.7876 74.5296L43.2917 70.9857C43.3715 70.849 43.4627 70.7465 43.588 70.6553ZM43.9982 71.6011L43.3259 73.2762H44.7047L44.0324 71.6011H43.9982Z" fill="#373536"/>
<path fill-rule="evenodd" clip-rule="evenodd" d="M41.5981 25.2692H45.3774V25.2217C47.101 24.9529 48.4293 23.4665 48.4293 21.6796C48.4293 19.703 46.8164 18.0901 44.8397 18.0901H37.2336V36.8601H46.8796C48.9195 36.8601 50.5799 35.184 50.5799 33.1599C50.5799 31.12 48.9037 29.4596 46.8796 29.4596H45.3774V29.4438H41.5981C40.4437 29.4438 39.5107 28.5109 39.5107 27.3565C39.5107 26.2022 40.4437 25.2692 41.5981 25.2692ZM50.4692 27.1193C52.9993 28.3053 54.7387 30.7721 54.7387 33.5868C54.7387 37.5559 51.2598 40.8134 47.0219 40.8134H35.1305C34.0236 40.8134 33.1064 39.9595 33.1064 38.9158V16.2874C33.1064 15.1963 34.0078 14.2949 35.0989 14.2949H44.9979C49.1725 14.2949 52.5723 17.7105 52.5723 21.8694C52.5881 23.9093 51.7817 25.7594 50.4692 27.1193Z" fill="#373536"/>
<path d="M5.93959 13.6309H24.8046C25.5952 13.6309 26.2436 13.8839 26.7654 14.3741C27.2872 14.8643 27.556 15.481 27.556 16.1768C27.556 16.8725 27.2872 17.4892 26.7654 17.9794C26.2436 18.4855 25.5794 18.7227 24.8046 18.7227H18.1156V38.5681C18.1156 39.3745 17.8626 40.0387 17.3724 40.5605C16.8822 41.0665 16.2023 41.3195 15.3642 41.3195C14.4945 41.3195 13.8303 41.0665 13.3401 40.5605C12.8499 40.0545 12.6127 39.3903 12.6127 38.5681V18.7543H5.92377C5.13312 18.7543 4.48479 18.5013 3.96296 18.0111C3.44112 17.5209 3.1723 16.9042 3.1723 16.2084C3.1723 15.5126 3.44112 14.8959 3.96296 14.4057C4.48479 13.8839 5.14893 13.6309 5.93959 13.6309Z" fill="#373536"/>
</svg>
